<svg width="56" height="56" viewBox="0 0 56 56" fill="none" xmlns="http://www.w3.org/2000/svg">
<rect width="56" height="56" rx="28" fill="white"/>
<path d="M27.6156 35.6275C27.8886 35.3545 28.293 35.2692 28.6669 35.3653C30.9853 35.9606 33.5493 35.3507 35.3644 33.5356C38.0981 30.8019 38.0981 26.3697 35.3644 23.6361C32.6307 20.9024 28.1986 20.9024 25.4649 23.6361C23.6498 25.4512 23.0399 28.0152 23.6352 30.3336C23.7313 30.7075 23.646 31.1119 23.373 31.3848L22.6365 32.1213C21.4649 33.2929 21.4649 35.1924 22.6365 36.364C23.8081 37.5356 25.7076 37.5356 26.8791 36.364L27.6156 35.6275Z" fill="url(#paint0_linear_3821_908)"/>
<circle cx="21" cy="21" r="3" fill="url(#paint1_linear_3821_908)"/>
<defs>
<linearGradient id="paint0_linear_3821_908" x1="37.6899" y1="37.2427" x2="18.9612" y2="31.3139" gradientUnits="userSpaceOnUse">
<stop stop-color="#16B364"/>
<stop offset="1" stop-color="#58D699"/>
</linearGradient>
<linearGradient id="paint1_linear_3821_908" x1="24.1055" y1="24" x2="16.9283" y2="21.728" gradientUnits="userSpaceOnUse">
<stop stop-color="#16B364"/>
<stop offset="1" stop-color="#58D699"/>
</linearGradient>
</defs>
</svg>
