<svg width="56" height="56" viewBox="0 0 56 56" fill="none" xmlns="http://www.w3.org/2000/svg">
<rect width="56" height="56" rx="28" fill="white"/>
<path d="M38.5 25.75H37.4875L34.8831 19.8906C34.7653 19.6255 34.5731 19.4003 34.3298 19.2422C34.0865 19.0841 33.8026 19 33.5125 19H22.4875C22.1974 19 21.9135 19.0841 21.6702 19.2422C21.4269 19.4003 21.2347 19.6255 21.1169 19.8906L18.5125 25.75H17.5C17.3011 25.75 17.1103 25.829 16.9697 25.9697C16.829 26.1103 16.75 26.3011 16.75 26.5C16.75 26.6989 16.829 26.8897 16.9697 27.0303C17.1103 27.171 17.3011 27.25 17.5 27.25H18.25V34.75C18.25 35.1478 18.408 35.5294 18.6893 35.8107C18.9706 36.092 19.3522 36.25 19.75 36.25H22C22.3978 36.25 22.7794 36.092 23.0607 35.8107C23.342 35.5294 23.5 35.1478 23.5 34.75V34H32.5V34.75C32.5 35.1478 32.658 35.5294 32.9393 35.8107C33.2206 36.092 33.6022 36.25 34 36.25H36.25C36.6478 36.25 37.0294 36.092 37.3107 35.8107C37.592 35.5294 37.75 35.1478 37.75 34.75V27.25H38.5C38.6989 27.25 38.8897 27.171 39.0303 27.0303C39.171 26.8897 39.25 26.6989 39.25 26.5C39.25 26.3011 39.171 26.1103 39.0303 25.9697C38.8897 25.829 38.6989 25.75 38.5 25.75ZM23.5 30.25H21.25C21.0511 30.25 20.8603 30.171 20.7197 30.0303C20.579 29.8897 20.5 29.6989 20.5 29.5C20.5 29.3011 20.579 29.1103 20.7197 28.9697C20.8603 28.829 21.0511 28.75 21.25 28.75H23.5C23.6989 28.75 23.8897 28.829 24.0303 28.9697C24.171 29.1103 24.25 29.3011 24.25 29.5C24.25 29.6989 24.171 29.8897 24.0303 30.0303C23.8897 30.171 23.6989 30.25 23.5 30.25ZM34.75 30.25H32.5C32.3011 30.25 32.1103 30.171 31.9697 30.0303C31.829 29.8897 31.75 29.6989 31.75 29.5C31.75 29.3011 31.829 29.1103 31.9697 28.9697C32.1103 28.829 32.3011 28.75 32.5 28.75H34.75C34.9489 28.75 35.1397 28.829 35.2803 28.9697C35.421 29.1103 35.5 29.3011 35.5 29.5C35.5 29.6989 35.421 29.8897 35.2803 30.0303C35.1397 30.171 34.9489 30.25 34.75 30.25ZM20.1541 25.75L22.4875 20.5H33.5125L35.8459 25.75H20.1541Z" fill="url(#paint0_linear_3821_2308)"/>
<defs>
<linearGradient id="paint0_linear_3821_2308" x1="39.6455" y1="36.25" x2="14.347" y2="25.8041" gradientUnits="userSpaceOnUse">
<stop stop-color="#16B364"/>
<stop offset="1" stop-color="#58D699"/>
</linearGradient>
</defs>
</svg>
