<svg width="20" height="20" viewBox="0 0 20 20" fill="none" xmlns="http://www.w3.org/2000/svg">
<path fill-rule="evenodd" clip-rule="evenodd" d="M10 20C15.5228 20 20 15.5228 20 10C20 4.47715 15.5228 0 10 0C4.47715 0 0 4.47715 0 10C0 15.5228 4.47715 20 10 20ZM11 5C11 4.44772 10.5523 4 10 4C9.44771 4 9 4.44772 9 5V9.58579C9 10.1162 9.21071 10.6249 9.58579 11L11.7929 13.2071C12.1834 13.5976 12.8166 13.5976 13.2071 13.2071C13.5976 12.8166 13.5976 12.1834 13.2071 11.7929L11 9.58579V5Z" fill="url(#paint0_linear_3289_138589)"/>
<defs>
<linearGradient id="paint0_linear_3289_138589" x1="20.3516" y1="20" x2="-3.57244" y2="12.4266" gradientUnits="userSpaceOnUse">
<stop stop-color="#16B364"/>
<stop offset="1" stop-color="#58D699"/>
</linearGradient>
</defs>
</svg>
