<svg width="56" height="56" viewBox="0 0 56 56" fill="none" xmlns="http://www.w3.org/2000/svg">
<rect width="56" height="56" rx="28" fill="white"/>
<path d="M35.5 19H20.5C20.1022 19 19.7206 19.158 19.4393 19.4393C19.158 19.7206 19 20.1022 19 20.5V35.5C19 35.8978 19.158 36.2794 19.4393 36.5607C19.7206 36.842 20.1022 37 20.5 37H35.5C35.8978 37 36.2794 36.842 36.5607 36.5607C36.842 36.2794 37 35.8978 37 35.5V20.5C37 20.1022 36.842 19.7206 36.5607 19.4393C36.2794 19.158 35.8978 19 35.5 19ZM35.5 35.5H20.5V20.5H35.5V35.5ZM31.75 25V31C31.75 31.1989 31.671 31.3897 31.5303 31.5303C31.3897 31.671 31.1989 31.75 31 31.75H25C24.8011 31.75 24.6103 31.671 24.4697 31.5303C24.329 31.3897 24.25 31.1989 24.25 31V25C24.25 24.8011 24.329 24.6103 24.4697 24.4697C24.6103 24.329 24.8011 24.25 25 24.25H31C31.1989 24.25 31.3897 24.329 31.5303 24.4697C31.671 24.6103 31.75 24.8011 31.75 25Z" fill="url(#paint0_linear_3821_2535)"/>
<defs>
<linearGradient id="paint0_linear_3821_2535" x1="37.3164" y1="37" x2="15.7848" y2="30.1839" gradientUnits="userSpaceOnUse">
<stop stop-color="#16B364"/>
<stop offset="1" stop-color="#58D699"/>
</linearGradient>
</defs>
</svg>
