<svg width="56" height="56" viewBox="0 0 56 56" fill="none" xmlns="http://www.w3.org/2000/svg">
<rect width="56" height="56" rx="28" fill="white"/>
<path d="M37.75 22H35.5V20.5C35.5 20.3011 35.421 20.1103 35.2803 19.9697C35.1397 19.829 34.9489 19.75 34.75 19.75H21.25C21.0511 19.75 20.8603 19.829 20.7197 19.9697C20.579 20.1103 20.5 20.3011 20.5 20.5V22H18.25C17.8522 22 17.4706 22.158 17.1893 22.4393C16.908 22.7206 16.75 23.1022 16.75 23.5V25C16.75 25.9946 17.1451 26.9484 17.8483 27.6517C18.1966 27.9999 18.61 28.2761 19.0649 28.4645C19.5199 28.653 20.0075 28.75 20.5 28.75H20.8422C21.284 30.1501 22.1263 31.39 23.2652 32.3166C24.404 33.2431 25.7893 33.8157 27.25 33.9634V36.25H25C24.8011 36.25 24.6103 36.329 24.4697 36.4697C24.329 36.6103 24.25 36.8011 24.25 37C24.25 37.1989 24.329 37.3897 24.4697 37.5303C24.6103 37.671 24.8011 37.75 25 37.75H31C31.1989 37.75 31.3897 37.671 31.5303 37.5303C31.671 37.3897 31.75 37.1989 31.75 37C31.75 36.8011 31.671 36.6103 31.5303 36.4697C31.3897 36.329 31.1989 36.25 31 36.25H28.75V33.9606C31.7444 33.6578 34.2288 31.5569 35.1325 28.75H35.5C36.4946 28.75 37.4484 28.3549 38.1516 27.6517C38.8549 26.9484 39.25 25.9946 39.25 25V23.5C39.25 23.1022 39.092 22.7206 38.8107 22.4393C38.5294 22.158 38.1478 22 37.75 22ZM20.5 27.25C19.9033 27.25 19.331 27.0129 18.909 26.591C18.4871 26.169 18.25 25.5967 18.25 25V23.5H20.5V26.5C20.5 26.75 20.5122 27 20.5366 27.25H20.5ZM37.75 25C37.75 25.5967 37.5129 26.169 37.091 26.591C36.669 27.0129 36.0967 27.25 35.5 27.25H35.4531C35.4839 26.9729 35.4995 26.6944 35.5 26.4156V23.5H37.75V25Z" fill="url(#paint0_linear_3821_1768)"/>
<defs>
<linearGradient id="paint0_linear_3821_1768" x1="39.6455" y1="37.75" x2="14.0427" y2="27.619" gradientUnits="userSpaceOnUse">
<stop stop-color="#16B364"/>
<stop offset="1" stop-color="#58D699"/>
</linearGradient>
</defs>
</svg>
