<svg width="48" height="48" viewBox="0 0 48 48" fill="none" xmlns="http://www.w3.org/2000/svg">
<g clip-path="url(#clip0_1355_65760)">
<g filter="url(#filter0_d_1355_65760)">
<path d="M39 19.5C39 33 24 43.5 24 43.5C24 43.5 9 33 9 19.5C9 15.5218 10.5804 11.7064 13.3934 8.8934C16.2064 6.08035 20.0218 4.5 24 4.5C27.9782 4.5 31.7936 6.08035 34.6066 8.8934C37.4196 11.7064 39 15.5218 39 19.5Z" fill="#EDFCF2"/>
<path d="M39 19.5C39 33 24 43.5 24 43.5C24 43.5 9 33 9 19.5C9 15.5218 10.5804 11.7064 13.3934 8.8934C16.2064 6.08035 20.0218 4.5 24 4.5C27.9782 4.5 31.7936 6.08035 34.6066 8.8934C37.4196 11.7064 39 15.5218 39 19.5Z" stroke="url(#paint0_linear_1355_65760)" stroke-linecap="round" stroke-linejoin="round"/>
</g>
<path fill-rule="evenodd" clip-rule="evenodd" d="M24 28.5C28.9706 28.5 33 24.4706 33 19.5C33 14.5294 28.9706 10.5 24 10.5C19.0294 10.5 15 14.5294 15 19.5C15 24.4706 19.0294 28.5 24 28.5ZM25.0044 13.3604C25.0044 13.9414 24.4288 14.4125 23.7187 14.4125C23.0086 14.4125 22.433 13.9414 22.433 13.3604C22.433 12.7794 23.0086 12.3083 23.7187 12.3083C24.4288 12.3083 25.0044 12.7794 25.0044 13.3604ZM28.047 14.597C28.3991 15.0287 28.8584 15.2367 29.0729 15.0617C29.2875 14.8868 29.176 14.395 28.824 13.9633C28.4719 13.5317 28.0126 13.3236 27.7981 13.4986C27.5835 13.6736 27.695 14.1654 28.047 14.597ZM31.4768 20.6214C31.7536 20.6168 31.9697 20.1113 31.9595 19.4924C31.9493 18.8734 31.7166 18.3753 31.4398 18.3799C31.163 18.3845 30.9469 18.8899 30.9571 19.5089C30.9673 20.1279 31.2 20.6259 31.4768 20.6214ZM29.3495 24.7577C28.9007 25.308 28.3629 25.6122 28.1484 25.4372C27.9338 25.2622 28.1237 24.6743 28.5725 24.124C29.0213 23.5738 29.5591 23.2695 29.7736 23.4445C29.9881 23.6195 29.7983 24.2074 29.3495 24.7577ZM24.9199 26.0088C24.9199 26.4927 24.3652 26.8849 23.6808 26.8849C22.9965 26.8849 22.4418 26.4927 22.4418 26.0088C22.4418 25.5249 22.9965 25.1327 23.6808 25.1327C24.3652 25.1327 24.9199 25.5249 24.9199 26.0088ZM18.2958 15.3395C18.5104 15.5145 18.9849 15.2878 19.3558 14.8331C19.7266 14.3785 19.8533 13.868 19.6387 13.6931C19.4242 13.5181 18.9496 13.7448 18.5788 14.1995C18.208 14.6541 18.0813 15.1646 18.2958 15.3395ZM18.568 24.9843C19.008 25.5239 19.5387 25.8194 19.7532 25.6444C19.9678 25.4694 19.785 24.8902 19.345 24.3507C18.9049 23.8111 18.3743 23.5156 18.1597 23.6906C17.9452 23.8656 18.128 24.4448 18.568 24.9843ZM17.5932 20.7816C18.1682 20.7816 18.6344 20.206 18.6344 19.4959C18.6344 18.7858 18.1682 18.2102 17.5932 18.2102C17.0182 18.2102 16.552 18.7858 16.552 19.4959C16.552 20.206 17.0182 20.7816 17.5932 20.7816ZM28.6788 19.5003C28.6788 20.2104 28.2787 20.786 27.785 20.786C27.2914 20.786 26.8912 20.2104 26.8912 19.5003C26.8912 18.7902 27.2914 18.2146 27.785 18.2146C28.2787 18.2146 28.6788 18.7902 28.6788 19.5003ZM23.0919 21.0383C23.8806 21.0383 24.5199 20.3499 24.5199 19.5006C24.5199 18.6514 23.8806 17.963 23.0919 17.963C22.3033 17.963 21.6639 18.6514 21.6639 19.5006C21.6639 20.3499 22.3033 21.0383 23.0919 21.0383Z" fill="url(#paint1_linear_1355_65760)"/>
</g>
<defs>
<filter id="filter0_d_1355_65760" x="4.5" y="2" width="39" height="48" filterUnits="userSpaceOnUse" color-interpolation-filters="sRGB">
<feFlood flood-opacity="0" result="BackgroundImageFix"/>
<feColorMatrix in="SourceAlpha" type="matrix" values="0 0 0 0 0 0 0 0 0 0 0 0 0 0 0 0 0 0 127 0" result="hardAlpha"/>
<feOffset dy="2"/>
<feGaussianBlur stdDeviation="2"/>
<feComposite in2="hardAlpha" operator="out"/>
<feColorMatrix type="matrix" values="0 0 0 0 0.0316078 0 0 0 0 0.454667 0 0 0 0 0.26429 0 0 0 0.2 0"/>
<feBlend mode="normal" in2="BackgroundImageFix" result="effect1_dropShadow_1355_65760"/>
<feBlend mode="normal" in="SourceGraphic" in2="effect1_dropShadow_1355_65760" result="shape"/>
</filter>
<linearGradient id="paint0_linear_1355_65760" x1="39.5273" y1="43.5" x2="2.25527" y2="34.4239" gradientUnits="userSpaceOnUse">
<stop stop-color="#16B364"/>
<stop offset="1" stop-color="#58D699"/>
</linearGradient>
<linearGradient id="paint1_linear_1355_65760" x1="33.3164" y1="28.5" x2="11.7848" y2="21.6839" gradientUnits="userSpaceOnUse">
<stop stop-color="#16B364"/>
<stop offset="1" stop-color="#58D699"/>
</linearGradient>
<clipPath id="clip0_1355_65760">
<rect width="48" height="48" fill="white"/>
</clipPath>
</defs>
</svg>
