<svg width="68" height="72" viewBox="0 0 68 72" fill="none" xmlns="http://www.w3.org/2000/svg">
<path opacity="0.3" fill-rule="evenodd" clip-rule="evenodd" d="M12.6281 22.5867C13.7116 22.3249 14.8191 22.193 15.93 22.1937C24.7275 22.1937 31.8572 30.3417 31.8572 40.3887C31.8572 50.4387 24.7275 58.5867 15.93 58.5867C7.1325 58.5867 0 50.4417 0 40.3887C0 40.0947 0.005625 39.7977 0.0196875 39.5037H0C0 24.3387 10.8 11.9997 24.075 11.9997V18.1077C19.7691 18.1077 15.7978 19.7817 12.6281 22.5867ZM48.2738 22.5867C49.3369 22.3287 50.4394 22.1937 51.57 22.1937C60.3675 22.1937 67.5 30.3417 67.5 40.3887C67.5 50.4387 60.3675 58.5867 51.57 58.5867C42.7725 58.5867 35.6428 50.4417 35.6428 40.3887C35.6428 40.0947 35.6484 39.7977 35.6625 39.5037H35.6428C35.6428 24.3387 46.4428 11.9997 59.7178 11.9997V18.1077C55.4091 18.1077 51.4434 19.7817 48.2738 22.5867Z" fill="url(#paint0_linear_3948_44266)"/>
<defs>
<linearGradient id="paint0_linear_3948_44266" x1="68.6865" y1="58.5867" x2="-4.70805" y2="24.9231" gradientUnits="userSpaceOnUse">
<stop stop-color="#16B364"/>
<stop offset="1" stop-color="#58D699"/>
</linearGradient>
</defs>
</svg>
