<svg width="56" height="56" viewBox="0 0 56 56" fill="none" xmlns="http://www.w3.org/2000/svg">
<rect width="56" height="56" rx="28" fill="white"/>
<path d="M30 34C30 35.1046 29.1046 36 28 36C26.8954 36 26 35.1046 26 34C26 32.8954 26.8954 32 28 32C29.1046 32 30 32.8954 30 34Z" fill="url(#paint0_linear_3821_3108)"/>
<path fill-rule="evenodd" clip-rule="evenodd" d="M28 30C26.6167 30 25.3662 30.5604 24.46 31.469C24.0699 31.86 23.4368 31.8608 23.0457 31.4708C22.6547 31.0807 22.6539 30.4476 23.044 30.0566C24.3101 28.7872 26.0641 28 28 28C29.9359 28 31.6899 28.7872 32.9561 30.0566C33.3461 30.4476 33.3453 31.0807 32.9543 31.4708C32.5632 31.8608 31.9301 31.86 31.54 31.469C30.6338 30.5604 29.3833 30 28 30Z" fill="url(#paint1_linear_3821_3108)"/>
<path fill-rule="evenodd" clip-rule="evenodd" d="M27.9998 26C25.5165 26 23.2696 27.0045 21.6402 28.6317C21.2494 29.0219 20.6163 29.0215 20.226 28.6307C19.8357 28.2399 19.8362 27.6067 20.227 27.2165C22.2161 25.2301 24.9652 24 27.9998 24C31.0344 24 33.7835 25.2301 35.7726 27.2165C36.1634 27.6067 36.1638 28.2399 35.7736 28.6307C35.3833 29.0215 34.7502 29.0219 34.3594 28.6317C32.73 27.0045 30.4831 26 27.9998 26Z" fill="url(#paint2_linear_3821_3108)"/>
<path fill-rule="evenodd" clip-rule="evenodd" d="M28 22C24.4095 22 21.1605 23.4543 18.8068 25.8085C18.4163 26.199 17.7831 26.1991 17.3926 25.8086C17.002 25.4181 17.0019 24.785 17.3924 24.3944C20.1059 21.6804 23.8577 20 28 20C32.1424 20 35.8942 21.6804 38.6077 24.3944C38.9981 24.785 38.9981 25.4181 38.6075 25.8086C38.217 26.1991 37.5838 26.199 37.1933 25.8085C34.8396 23.4543 31.5906 22 28 22Z" fill="url(#paint3_linear_3821_3108)"/>
<defs>
<linearGradient id="paint0_linear_3821_3108" x1="30.0703" y1="36" x2="25.2855" y2="34.4853" gradientUnits="userSpaceOnUse">
<stop stop-color="#16B364"/>
<stop offset="1" stop-color="#58D699"/>
</linearGradient>
<linearGradient id="paint1_linear_3821_3108" x1="33.4326" y1="31.7628" x2="25.671" y2="24.9091" gradientUnits="userSpaceOnUse">
<stop stop-color="#16B364"/>
<stop offset="1" stop-color="#58D699"/>
</linearGradient>
<linearGradient id="paint2_linear_3821_3108" x1="36.3496" y1="28.9241" x2="26.1207" y2="18.3154" gradientUnits="userSpaceOnUse">
<stop stop-color="#16B364"/>
<stop offset="1" stop-color="#58D699"/>
</linearGradient>
<linearGradient id="paint3_linear_3821_3108" x1="39.2837" y1="26.1014" x2="26.6962" y2="11.8638" gradientUnits="userSpaceOnUse">
<stop stop-color="#16B364"/>
<stop offset="1" stop-color="#58D699"/>
</linearGradient>
</defs>
</svg>
