<svg width="24" height="24" viewBox="0 0 24 24" fill="none" xmlns="http://www.w3.org/2000/svg">
<path d="M24 12C24 5.37258 18.6274 0 12 0C5.37258 0 0 5.37258 0 12C0 18.6274 5.37258 24 12 24C18.6274 24 24 18.6274 24 12Z" fill="#FF0000"/>
<path d="M11.9941 6.33765C11.9941 6.33765 6.93663 6.33765 5.66727 6.66749C4.9876 6.85739 4.42795 7.41705 4.23805 8.10671C3.90821 9.37608 3.9082 12.0048 3.9082 12.0048C3.9082 12.0048 3.90821 14.6436 4.23805 15.893C4.42795 16.5826 4.97761 17.1323 5.66727 17.3222C6.94663 17.662 11.9941 17.662 11.9941 17.662C11.9941 17.662 17.0617 17.662 18.331 17.3322C19.0207 17.1423 19.5703 16.6026 19.7502 15.903C20.0901 14.6436 20.0901 12.0148 20.0901 12.0148C20.0901 12.0148 20.1001 9.37608 19.7502 8.10671C19.5703 7.41705 19.0207 6.8674 18.331 6.68749C17.0617 6.33766 11.9941 6.33765 11.9941 6.33765ZM10.3849 9.57608L14.5929 12.0048L10.3849 14.4236V9.57608Z" fill="white"/>
</svg>
