<svg width="21" height="24" viewBox="0 0 21 24" fill="none" xmlns="http://www.w3.org/2000/svg">
<path d="M16.8536 12.7634C16.8774 10.9107 17.8724 9.15762 19.4508 8.18723C18.4551 6.76513 16.7872 5.86347 15.052 5.80918C13.2013 5.61492 11.407 6.91664 10.4639 6.91664C9.50257 6.91664 8.05051 5.82847 6.48688 5.86064C4.44875 5.92648 2.5487 7.08525 1.55711 8.86712C-0.574414 12.5575 1.01551 17.9812 3.05734 20.9642C4.07891 22.425 5.27283 24.0566 6.83505 23.9987C8.36378 23.9353 8.93473 23.0239 10.78 23.0239C12.6082 23.0239 13.1439 23.9987 14.7378 23.962C16.3782 23.9353 17.4117 22.4948 18.3975 21.0202C19.1314 19.9794 19.6963 18.8291 20.071 17.6118C18.1432 16.7965 16.8558 14.8565 16.8536 12.7634Z" fill="#101828"/>
<path d="M13.8429 3.84738C14.7373 2.77367 15.178 1.3936 15.0712 0.000244141C13.7048 0.143765 12.4426 0.796845 11.5361 1.82936C10.6496 2.83818 10.1883 4.19397 10.2755 5.53406C11.6425 5.54814 12.9863 4.91276 13.8429 3.84738Z" fill="#101828"/>
</svg>
