<svg width="22" height="24" viewBox="0 0 22 24" fill="none" xmlns="http://www.w3.org/2000/svg">
<g filter="url(#filter0_ii_3394_48932)">
<path d="M0.432025 0.371095C0.160494 0.658489 -3.98663e-07 1.10451 -3.98663e-07 1.6821V22.3185C-3.98663e-07 22.897 0.160494 23.3421 0.432025 23.6295L0.501074 23.6967L12.0612 12.1365V12.0003V11.8641L0.501074 0.302979L0.432025 0.371095Z" fill="url(#paint0_linear_3394_48932)"/>
<path d="M15.9133 15.9906L12.0605 12.1359V11.9997V11.8635L15.9142 8.00977L16.001 8.05922L20.5667 10.6532C21.8702 11.3941 21.8702 12.6062 20.5667 13.348L16.001 15.942L15.9133 15.9906Z" fill="url(#paint1_linear_3394_48932)"/>
<g filter="url(#filter1_i_3394_48932)">
<path d="M16.0013 15.9414L12.0599 12L0.431641 23.6292C0.860867 24.0846 1.57095 24.1405 2.37062 23.6871L16.0013 15.9414Z" fill="url(#paint2_linear_3394_48932)"/>
</g>
<path d="M16.0013 8.05831L2.37062 0.313591C1.57095 -0.140828 0.860867 -0.0839084 0.431641 0.371444L12.0608 12.0007L16.0013 8.05831Z" fill="url(#paint3_linear_3394_48932)"/>
</g>
<defs>
<filter id="filter0_ii_3394_48932" x="0" y="0" width="21.5449" height="24.0002" filterUnits="userSpaceOnUse" color-interpolation-filters="sRGB">
<feFlood flood-opacity="0" result="BackgroundImageFix"/>
<feBlend mode="normal" in="SourceGraphic" in2="BackgroundImageFix" result="shape"/>
<feColorMatrix in="SourceAlpha" type="matrix" values="0 0 0 0 0 0 0 0 0 0 0 0 0 0 0 0 0 0 127 0" result="hardAlpha"/>
<feOffset dy="-0.139965"/>
<feComposite in2="hardAlpha" operator="arithmetic" k2="-1" k3="1"/>
<feColorMatrix type="matrix" values="0 0 0 0 0 0 0 0 0 0 0 0 0 0 0 0 0 0 0.12 0"/>
<feBlend mode="normal" in2="shape" result="effect1_innerShadow_3394_48932"/>
<feColorMatrix in="SourceAlpha" type="matrix" values="0 0 0 0 0 0 0 0 0 0 0 0 0 0 0 0 0 0 127 0" result="hardAlpha"/>
<feOffset dy="0.139965"/>
<feComposite in2="hardAlpha" operator="arithmetic" k2="-1" k3="1"/>
<feColorMatrix type="matrix" values="0 0 0 0 1 0 0 0 0 1 0 0 0 0 1 0 0 0 0.25 0"/>
<feBlend mode="normal" in2="effect1_innerShadow_3394_48932" result="effect2_innerShadow_3394_48932"/>
</filter>
<filter id="filter1_i_3394_48932" x="0.431641" y="12" width="15.5703" height="12.0002" filterUnits="userSpaceOnUse" color-interpolation-filters="sRGB">
<feFlood flood-opacity="0" result="BackgroundImageFix"/>
<feBlend mode="normal" in="SourceGraphic" in2="BackgroundImageFix" result="shape"/>
<feColorMatrix in="SourceAlpha" type="matrix" values="0 0 0 0 0 0 0 0 0 0 0 0 0 0 0 0 0 0 127 0" result="hardAlpha"/>
<feOffset dy="-0.139965"/>
<feComposite in2="hardAlpha" operator="arithmetic" k2="-1" k3="1"/>
<feColorMatrix type="matrix" values="0 0 0 0 0 0 0 0 0 0 0 0 0 0 0 0 0 0 0.08 0"/>
<feBlend mode="normal" in2="shape" result="effect1_innerShadow_3394_48932"/>
</filter>
<linearGradient id="paint0_linear_3394_48932" x1="11.0365" y1="1.46375" x2="-4.62276" y2="17.123" gradientUnits="userSpaceOnUse">
<stop stop-color="#00A0FF"/>
<stop offset="0.0066" stop-color="#00A1FF"/>
<stop offset="0.2601" stop-color="#00BEFF"/>
<stop offset="0.5122" stop-color="#00D2FF"/>
<stop offset="0.7604" stop-color="#00DFFF"/>
<stop offset="1" stop-color="#00E3FF"/>
</linearGradient>
<linearGradient id="paint1_linear_3394_48932" x1="22.2635" y1="11.9997" x2="-0.313648" y2="11.9997" gradientUnits="userSpaceOnUse">
<stop stop-color="#FFE000"/>
<stop offset="0.4087" stop-color="#FFBD00"/>
<stop offset="0.7754" stop-color="#FFA500"/>
<stop offset="1" stop-color="#FF9C00"/>
</linearGradient>
<linearGradient id="paint2_linear_3394_48932" x1="13.8609" y1="14.1404" x2="-7.37503" y2="35.3764" gradientUnits="userSpaceOnUse">
<stop stop-color="#FF3A44"/>
<stop offset="1" stop-color="#C31162"/>
</linearGradient>
<linearGradient id="paint3_linear_3394_48932" x1="-2.49698" y1="-6.49822" x2="6.98545" y2="2.98421" gradientUnits="userSpaceOnUse">
<stop stop-color="#32A071"/>
<stop offset="0.0685" stop-color="#2DA771"/>
<stop offset="0.4762" stop-color="#15CF74"/>
<stop offset="0.8009" stop-color="#06E775"/>
<stop offset="1" stop-color="#00F076"/>
</linearGradient>
</defs>
</svg>
